<?xml version="1.0" encoding="UTF-8"?>
<svg version="1.1" xmlns="http://www.w3.org/2000/svg" width="1773" height="350">
<path d="M0 0 C13.28355044 -0.06982287 26.56705649 -0.12297425 39.85075378 -0.15543652 C46.02036061 -0.17102472 52.18984094 -0.19213669 58.359375 -0.22631836 C64.3246076 -0.25915746 70.2897193 -0.27690435 76.2550354 -0.28463173 C78.5193573 -0.29013148 80.78367335 -0.30086975 83.04794312 -0.31719017 C106.13752879 -0.47684289 127.91266353 1.2537601 145.8125 17.5625 C146.534375 18.366875 147.25625 19.17125 148 20 C148.86625 20.94875 149.7325 21.8975 150.625 22.875 C158.21674871 32.86414304 159.00359687 44.92131205 158 57 C157.03840001 62.65793027 155.72574864 67.92773732 153 73 C152.34 73 151.68 73 151 73 C151 73.99 151 74.98 151 76 C150.01 76.495 150.01 76.495 149 77 C148.566875 77.763125 148.13375 78.52625 147.6875 79.3125 C144.16072578 84.9292145 138.63943988 87.37799846 132.8125 90.0625 C132.06234619 90.41248047 131.31219238 90.76246094 130.53930664 91.12304688 C125.15582041 93.58711858 119.77539584 95.63774447 114 97 C115.4841373 100.48654476 117.46214052 102.64191072 120.1875 105.25 C122.96417617 107.96516752 125.66223261 110.67456004 128.1875 113.625 C144.02036464 131.94431913 161.79746083 151.93383691 187 156 C195.39239144 156.57878562 206.25147939 157.10497149 213.00769043 151.2644043 C221.72365187 141.3580821 219.58242702 124.65193507 219.53125 112.4375 C219.5339501 110.1555159 219.53783681 107.87353293 219.54284668 105.59155273 C219.54871731 100.82752441 219.54025746 96.06379772 219.52148438 91.29980469 C219.49869675 85.22425825 219.51183292 79.14941888 219.53577423 73.07389832 C219.55029813 68.36725637 219.54559605 63.66077926 219.53526306 58.95413208 C219.53261397 56.71525995 219.53580074 54.47637236 219.54518127 52.23751831 C220.06419442 35.09187593 220.06419442 35.09187593 215 19 C209.19725509 13.6957648 203.16422622 12.70663255 195.625 11.875 C194.52091797 11.74544922 194.52091797 11.74544922 193.39453125 11.61328125 C191.59700818 11.40318115 189.79858658 11.20079233 188 11 C188 7.37 188 3.74 188 0 C201.97003069 -0.04649332 215.94004275 -0.08195524 229.91013527 -0.10362434 C236.39812594 -0.11402831 242.88606339 -0.12812528 249.37402344 -0.15087891 C255.64398084 -0.17272851 261.91388729 -0.18459405 268.18387985 -0.18975449 C270.56706926 -0.19342859 272.95025611 -0.20060274 275.33342361 -0.21146011 C290.518832 -0.27784443 305.08819432 -0.04252164 319.8125 4.125 C320.93217163 4.44150513 320.93217163 4.44150513 322.07446289 4.7644043 C334.90726575 8.58903521 346.65533393 14.45793665 357 23 C357.87269531 23.69867188 358.74539063 24.39734375 359.64453125 25.1171875 C365.84870413 30.34469148 370.06242257 35.93336105 374 43 C374.41121094 43.71285156 374.82242187 44.42570312 375.24609375 45.16015625 C377.48031357 49.27668581 378.68241846 53.21717245 379.5078125 57.82421875 C379.92377854 60.04394579 379.92377854 60.04394579 381.01416016 62.09692383 C382.32076808 65.9445897 382.2862095 69.6096908 382.265625 73.625 C382.26753845 74.4495166 382.2694519 75.2740332 382.27142334 76.12353516 C382.27278048 77.86165676 382.26911703 79.59978867 382.26074219 81.33789062 C382.25003584 83.99111807 382.26065333 86.64366849 382.2734375 89.296875 C382.27211582 90.98958482 382.26955326 92.68229422 382.265625 94.375 C382.26967346 95.16471191 382.27372192 95.95442383 382.27789307 96.76806641 C382.24217769 100.98453419 381.79863894 104.18714674 380 108 C379.80277344 109.39798828 379.80277344 109.39798828 379.6015625 110.82421875 C378.83295486 114.88186816 377.24465196 118.15412586 375.375 121.8125 C375.015271 122.51955078 374.65554199 123.22660156 374.28491211 123.95507812 C364.13172842 143.42559018 345.40716409 156.00851802 324.83984375 162.703125 C322.5066837 163.42348316 320.1652132 164.09645507 317.8125 164.75 C317.12003174 164.94883789 316.42756348 165.14767578 315.71411133 165.35253906 C287.54933034 172.65927722 255.64673701 169.84291128 226.75409985 170.04506969 C216.61025705 170.11737422 206.47037556 170.24590992 196.32825297 170.44712847 C189.14645624 170.58473106 181.96573859 170.65649556 174.78267652 170.68084508 C170.51140601 170.69717247 166.24504393 170.74172856 161.97524071 170.85854149 C134.11256581 171.58811788 134.11256581 171.58811788 126.88687134 165.30215454 C123.72226489 161.85175726 121.309807 158.1653857 119.12275124 154.03689003 C117.51468781 151.11954891 115.51736224 148.73276739 113.375 146.1875 C112.80523438 145.45917969 112.23546875 144.73085937 111.6484375 143.98046875 C109.98317883 141.91617618 109.98317883 141.91617618 107.859375 139.875 C105.99814273 137.99812712 105.1357705 136.35266746 104 134 C103.34 133.67 102.68 133.34 102 133 C101.3162955 131.67532254 100.65035814 130.34136367 100 129 C99.34 128.34 98.68 127.68 98 127 C97.08465671 125.80903355 96.18550043 124.60556356 95.296875 123.39453125 C92.06999115 119.05509784 88.68220151 114.8653177 85.25 110.6875 C84.10814455 109.29658212 82.9674698 107.90469392 81.828125 106.51171875 C81.3321582 105.90803467 80.83619141 105.30435059 80.32519531 104.68237305 C79.14064808 103.17855672 78.0618729 101.59280935 77 100 C73.43230448 99.26393501 73.43230448 99.26393501 70 99 C70.09413585 103.98078114 70.20035737 108.96111023 70.31738281 113.94140625 C70.35547015 115.6327423 70.3903569 117.32415378 70.421875 119.015625 C70.46796898 121.45860606 70.52588559 123.90107681 70.5859375 126.34375 C70.59748871 127.08991577 70.60903992 127.83608154 70.62094116 128.6048584 C70.84546034 136.74217085 72.2554058 145.14527068 78.125 151.1875 C85.62206317 155.91390939 93.28725018 156.49926725 102 157 C102 160.96 102 164.92 102 169 C68.34 169 34.68 169 0 169 C0 165.04 0 161.08 0 157 C1.14597656 156.89042969 2.29195312 156.78085937 3.47265625 156.66796875 C5.00266527 156.50839726 6.53260995 156.34820805 8.0625 156.1875 C8.81466797 156.11724609 9.56683594 156.04699219 10.34179688 155.97460938 C16.00906307 155.36126888 21.20809388 154.33830123 25.70703125 150.5703125 C31.80232179 142.60120473 32.14929278 134.82071554 32.16113281 125.13012695 C32.16609772 124.15205582 32.17106262 123.17398468 32.17617798 122.16627502 C32.19074597 118.94026985 32.1975931 115.71431387 32.203125 112.48828125 C32.20888139 110.23634338 32.21463906 107.98440551 32.22039795 105.73246765 C32.23089306 101.01247938 32.2367453 96.29250806 32.24023438 91.57250977 C32.24571226 85.54491327 32.26973172 79.51754343 32.29820633 73.49001789 C32.31689493 68.83753316 32.32204165 64.18510232 32.32357025 59.53258324 C32.32658386 57.31158397 32.33456839 55.09058535 32.34775543 52.86962318 C32.36494422 49.75185884 32.36290429 46.63463911 32.35644531 43.5168457 C32.3656601 42.61204468 32.37487488 41.70724365 32.3843689 40.77502441 C32.33576733 33.2289056 31.40756374 24.75154575 26.8125 18.5 C19.41937344 11.92833194 9.4214312 11.97187094 0 11 C0 7.37 0 3.74 0 0 Z M70 17 C70 38.45 70 59.9 70 82 C93.39396985 83.1759758 93.39396985 83.1759758 112 73 C118.33749491 66.46176996 120.98184913 58.60496999 121.375 49.5625 C120.92338238 39.48239466 118.45807818 31.89671746 111 25 C110.51402344 24.50757813 110.02804687 24.01515625 109.52734375 23.5078125 C98.89582455 13.49819275 83.14045178 17 70 17 Z M258 17 C257.90639528 32.75134362 257.83594202 48.50261167 257.79275131 64.2541647 C257.77216053 71.5685451 257.74410711 78.88275229 257.69824219 86.19702148 C257.6582671 92.57507656 257.63254187 98.95300614 257.62364602 105.33118302 C257.61844918 108.70578911 257.60630877 112.08003629 257.57707977 115.4545269 C257.54796999 119.22958379 257.54404736 123.00390136 257.54589844 126.77905273 C257.53151733 127.88748535 257.51713623 128.99591797 257.50231934 130.13793945 C257.53685755 136.66347973 258.15784502 142.52020209 262 148 C267.14115105 151.40794007 273.06912325 151.48381311 279.0625 151.375 C279.89249512 151.36339844 280.72249023 151.35179687 281.57763672 151.33984375 C296.68626266 150.9453778 314.00442276 147.16985181 325.375 136.375 C328.16001941 133.12952405 331 129.41636068 331 125 C331.66 125 332.32 125 333 125 C342.5858776 97.87015775 345.045723 70.95597768 333 44 C332.01305634 41.99352493 331.01651367 39.99165759 330 38 C329.34 38 328.68 38 328 38 C327.89429688 37.39929688 327.78859375 36.79859375 327.6796875 36.1796875 C325.72109804 29.8986937 317.47409974 26.24087172 312.04296875 23.38671875 C302.50497095 19.04013439 292.8691173 16.86052353 282.4140625 16.90234375 C281.71227875 16.9037587 281.010495 16.90517365 280.28744507 16.90663147 C278.06658496 16.9121871 275.84582916 16.92473108 273.625 16.9375 C272.11067855 16.94252074 270.5963555 16.94708264 269.08203125 16.95117188 C265.38798748 16.96214193 261.69400394 16.97937551 258 17 Z " fill="#CDCDCD" transform="translate(517,111)"/>
<path d="M0 0 C13.28355044 -0.06982287 26.56705649 -0.12297425 39.85075378 -0.15543652 C46.02036061 -0.17102472 52.18984094 -0.19213669 58.359375 -0.22631836 C64.3246076 -0.25915746 70.2897193 -0.27690435 76.2550354 -0.28463173 C78.5193573 -0.29013148 80.78367335 -0.30086975 83.04794312 -0.31719017 C115.06587771 -0.53857788 115.06587771 -0.53857788 129 7 C129.721875 7.34675781 130.44375 7.69351563 131.1875 8.05078125 C141.67711445 13.35022188 151.84424933 22.32493381 155.8125 33.625 C159.5355016 46.48030554 158.8500768 60.0415574 152.36328125 71.98828125 C148.21999531 78.10229918 143.46679358 83.39156972 137 87 C135.91912109 87.72509766 135.91912109 87.72509766 134.81640625 88.46484375 C127.93121339 92.96348796 120.91484846 95.06120427 113 97 C114.1446875 98.3303125 114.1446875 98.3303125 115.3125 99.6875 C117.47861299 102.21203456 119.63245918 104.74649417 121.77734375 107.2890625 C122.51053833 108.15785034 122.51053833 108.15785034 123.25854492 109.04418945 C124.24515926 110.21394681 125.23101172 111.38434723 126.21606445 112.55541992 C128.0871905 114.77342723 129.94703713 116.94703713 132 119 C132.763125 119.928125 133.52625 120.85625 134.3125 121.8125 C148.19431072 137.82485242 165.49463325 152.73002156 187.25 156 C193.62573473 156.35190744 199.25606315 154.55768209 204.375 150.75 C211.11358473 143.69053029 211.15021263 135.21507447 211.16113281 126.04418945 C211.16609772 125.04515091 211.17106262 124.04611237 211.17617798 123.01679993 C211.19076788 119.71561998 211.19759688 116.41448812 211.203125 113.11328125 C211.20887972 110.81267801 211.21463741 108.51207478 211.22039795 106.21147156 C211.23089938 101.3871539 211.23674745 96.56285287 211.24023438 91.73852539 C211.24571266 85.57292047 211.2697303 79.40753709 211.29820633 73.24200153 C211.31688097 68.48833079 211.32204092 63.73471285 211.32357025 58.98100853 C211.32658716 56.70894347 211.33458301 54.43687912 211.34775543 52.16485023 C211.36491422 48.97732593 211.36291142 45.79033565 211.35644531 42.6027832 C211.37026749 41.20977997 211.37026749 41.20977997 211.3843689 39.78863525 C211.32830629 30.91396587 209.66261713 23.21470231 203.79296875 16.375 C199.16322947 12.82452456 193.24004391 12.49438097 187.625 11.875 C186.52091797 11.74544922 186.52091797 11.74544922 185.39453125 11.61328125 C183.59700818 11.40318115 181.79858658 11.20079233 180 11 C180 7.37 180 3.74 180 0 C199.40991412 -0.02332763 218.81982541 -0.0409785 238.22975063 -0.05181217 C247.24146937 -0.05697542 256.25317942 -0.06401866 265.26489258 -0.07543945 C273.1165955 -0.08538541 280.96829214 -0.09185322 288.82000118 -0.09408849 C292.98003452 -0.09539575 297.14004985 -0.09848255 301.30007744 -0.10573006 C305.21108412 -0.11248889 309.12206527 -0.11461724 313.03307724 -0.11310768 C314.47267228 -0.11338407 315.91226813 -0.11539001 317.35185814 -0.11920547 C319.30894233 -0.12414051 321.26604004 -0.12239807 323.22312927 -0.12025452 C324.32098472 -0.12117631 325.41884016 -0.1220981 326.54996395 -0.12304783 C329 0 329 0 330 1 C330.30382102 3.77386876 330.54872787 6.5308096 330.75390625 9.3125 C330.81907944 10.15538574 330.88425262 10.99827148 330.95140076 11.86669922 C331.08887427 13.65884843 331.2240634 15.45117408 331.35717773 17.24365234 C331.55960279 19.96110637 331.77041766 22.67780974 331.98242188 25.39453125 C332.11509188 27.13798221 332.24726831 28.88147081 332.37890625 30.625 C332.44139053 31.42848877 332.50387482 32.23197754 332.56825256 33.05981445 C332.95798921 38.38733172 333.05297931 43.65808661 333 49 C329.7 49 326.4 49 323 49 C322.45472656 47.19015625 322.45472656 47.19015625 321.8984375 45.34375 C318.61976811 32.86287821 318.61976811 32.86287821 311 23 C301.23500374 18.29212627 290.80055338 17.89264275 280.15234375 17.68359375 C278.95695984 17.65561707 278.95695984 17.65561707 277.73742676 17.6270752 C274.80421395 17.55956951 271.87084655 17.49891992 268.9375 17.4375 C262.358125 17.293125 255.77875 17.14875 249 17 C249 34.82 249 52.64 249 71 C268.01365499 71.0566728 268.01365499 71.0566728 285 64 C287.65140223 58.88932614 288.6200952 54.25216468 289.1875 48.5625 C289.3102832 47.46518555 289.3102832 47.46518555 289.43554688 46.34570312 C289.63341885 44.56485534 289.81810707 42.78255073 290 41 C293.63 41 297.26 41 301 41 C301 66.41 301 91.82 301 118 C297.37 118 293.74 118 290 118 C289.90203125 116.9378125 289.8040625 115.875625 289.703125 114.78125 C288.98105235 103.61378271 288.98105235 103.61378271 284 94 C276.7882663 89.7962831 269.03865884 89.20564607 260.875 88.75 C259.72773437 88.67265625 258.58046875 88.5953125 257.3984375 88.515625 C254.59955923 88.32903312 251.8006413 88.15747606 249 88 C249.06949775 93.61971871 249.15775499 99.23873678 249.26245117 104.85791016 C249.29544388 106.76440574 249.32355319 108.67099299 249.34643555 110.57763672 C249.21787776 127.91512463 249.21787776 127.91512463 254.75 144.0625 C262.96830734 151.13937576 273.83542741 150.18234032 284 150.1875 C285.23878906 150.19974609 286.47757813 150.21199219 287.75390625 150.22460938 C299.41427749 150.2428477 310.75711713 149.99112017 321 144 C321.99 143.67 322.98 143.34 324 143 C324 142.34 324 141.68 324 141 C324.66 140.67 325.32 140.34 326 140 C326.93615034 137.98181379 326.93615034 137.98181379 327.7265625 135.52734375 C328.0359375 134.62822266 328.3453125 133.72910156 328.6640625 132.80273438 C328.98117187 131.85720703 329.29828125 130.91167969 329.625 129.9375 C330.11226562 128.5134082 330.11226562 128.5134082 330.609375 127.06054688 C331.41282695 124.70926839 332.20725772 122.35491088 333 120 C336.3 120 339.6 120 343 120 C342.73483106 124.72826717 342.46823935 129.45645142 342.20043945 134.18457031 C342.10989775 135.78643733 342.01971662 137.38832477 341.92993164 138.99023438 C341.79933603 141.31906779 341.66735677 143.6478197 341.53515625 145.9765625 C341.47727684 147.01654892 341.47727684 147.01654892 341.41822815 148.07754517 C341.14724285 152.82158036 340.82199961 157.56057707 340.48143005 162.30014038 C340.39129859 163.55618261 340.30116713 164.81222485 340.20830441 166.10632896 C340.13956395 167.06124041 340.0708235 168.01615185 340 169 C313.0185106 169.21025898 286.037144 169.36895822 259.05500031 169.46630955 C246.52662263 169.51271344 233.99875404 169.57597592 221.47070312 169.67895508 C210.55098617 169.76867111 199.6316379 169.82672662 188.71156263 169.84679645 C182.92944162 169.85852821 177.1483753 169.88608969 171.36659241 169.95157051 C165.92278993 170.01272327 160.48047503 170.0314918 155.03636169 170.01796913 C153.04006867 170.02044238 151.04372523 170.03830997 149.04772949 170.07284927 C133.97436326 170.32085879 133.97436326 170.32085879 129.10397339 167.06254387 C127.06097742 164.80210762 125.53838487 162.62039192 124 160 C122.96868518 158.70560202 121.92101569 157.42381482 120.84765625 156.1640625 C119.91632712 154.98669759 118.98787134 153.80705329 118.0625 152.625 C117.34223633 151.72201172 117.34223633 151.72201172 116.60742188 150.80078125 C114.57532737 148.21552138 113.04815869 146.14447606 112 143 C111.42636719 142.74089844 110.85273437 142.48179687 110.26171875 142.21484375 C106.92359354 140.42182658 105.04307136 137.53738404 102.8125 134.5625 C101.84224721 133.29472925 100.87087683 132.0278131 99.8984375 130.76171875 C99.4147168 130.12927246 98.93099609 129.49682617 98.43261719 128.84521484 C95.64355439 125.25289435 92.70313014 121.78600295 89.77734375 118.3046875 C88.19252737 116.24965087 87.15193562 114.30387123 86 112 C85.34 111.67 84.68 111.34 84 111 C83.3162955 109.67532254 82.65035814 108.34136367 82 107 C81.34 106.34 80.68 105.68 80 105 C77 101.30769231 77 101.30769231 77 99 C74.36 99 71.72 99 69 99 C69.44678798 115.54931744 70.23246075 131.66657639 73 148 C73.66 148 74.32 148 75 148 C75.33 148.99 75.66 149.98 76 151 C81.24874689 154.89761785 87.15375677 155.75387675 93.5 156.25 C94.32242187 156.32734375 95.14484375 156.4046875 95.9921875 156.484375 C97.99351337 156.67054485 99.99662687 156.83733295 102 157 C102.02687279 158.81242052 102.04633715 160.62495233 102.0625 162.4375 C102.07410156 163.44683594 102.08570313 164.45617187 102.09765625 165.49609375 C102 168 102 168 101 169 C97.86440114 169.09534958 94.75086387 169.12550879 91.61499023 169.11352539 C90.13710526 169.11374443 90.13710526 169.11374443 88.62936401 169.1139679 C85.35575193 169.11326832 82.08219596 169.10547385 78.80859375 169.09765625 C76.54557832 169.09579223 74.28256249 169.09436825 72.01954651 169.09336853 C66.05021052 169.0895421 60.08089868 169.07971075 54.11157227 169.06866455 C48.02555671 169.05845312 41.93953727 169.05387149 35.85351562 169.04882812 C23.90233311 169.03808859 11.95116856 169.02101068 0 169 C0 165.04 0 161.08 0 157 C1.134375 156.90203125 2.26875 156.8040625 3.4375 156.703125 C15.13860794 156.20899064 15.13860794 156.20899064 25 151 C30.22422273 141.91382021 31.15069024 132.81099071 31.14526367 122.55151367 C31.14862228 121.63021164 31.1519809 120.70890961 31.15544128 119.75968933 C31.16490123 116.7291019 31.16689191 113.69857001 31.16796875 110.66796875 C31.17118479 108.54958575 31.17454913 106.43120297 31.17805481 104.31282043 C31.1840337 99.87708013 31.18589599 95.44135928 31.18530273 91.00561523 C31.18520119 85.34008033 31.19885123 79.67467095 31.21607494 74.00916576 C31.22722919 69.63466323 31.22922089 65.26019072 31.22869301 60.88567543 C31.22986804 58.79783 31.23426288 56.70998366 31.24202538 54.62215233 C31.25189447 51.69357039 31.24892005 48.76525678 31.24291992 45.83666992 C31.24853943 44.9859491 31.25415894 44.13522827 31.25994873 43.25872803 C31.22093561 35.71196139 30.2207904 28.05949317 27.25 21.0625 C26.96640625 20.35222656 26.6828125 19.64195312 26.390625 18.91015625 C23.42349299 14.83451706 18.99718477 13.88634343 14.2578125 13.05078125 C12.5483911 12.79436804 10.83736369 12.54846578 9.125 12.3125 C8.24585938 12.18294922 7.36671875 12.05339844 6.4609375 11.91992188 C4.30861997 11.60409267 2.15447313 11.30077298 0 11 C0 7.37 0 3.74 0 0 Z M69 17 C69 38.45 69 59.9 69 82 C92.63166924 83.33590054 92.63166924 83.33590054 112.34765625 73.06640625 C120.01354188 63.47951855 121.03555343 52.82497882 120 41 C118.47740109 33.36866088 115.33112845 27.60445706 109 23 C95.53198977 14.91919386 86.55952163 17 69 17 Z " fill="#CDCDCD" transform="translate(1103,111)"/>
<path d="M0 0 C36.96 0 73.92 0 112 0 C112 3.96 112 7.92 112 12 C110.06447266 12.18175781 110.06447266 12.18175781 108.08984375 12.3671875 C106.37236253 12.53612008 104.65491642 12.70540987 102.9375 12.875 C102.08994141 12.95363281 101.24238281 13.03226563 100.36914062 13.11328125 C95.36591163 13.6155359 90.75143052 14.3200747 86 16 C84.59145334 17.81701858 84.59145334 17.81701858 84 20 C83.443125 20.86625 83.443125 20.86625 82.875 21.75 C80.09701617 28.893387 82.92967916 36.17374263 84.92578125 43.18359375 C85.87245334 46.54686151 86.70557887 49.91097308 87.5 53.3125 C88.62096 57.86944609 90.15102215 62.05832152 91.97886658 66.37330627 C92.96311375 68.90511633 93.69297605 71.3825147 94.36938477 74.01147461 C96.05677894 80.33413774 98.05071207 86.53711669 100.08984375 92.75390625 C100.47564102 93.93540756 100.86143829 95.11690887 101.25892639 96.33421326 C102.07027494 98.81626806 102.88299369 101.29787534 103.69702148 103.77905273 C104.93462671 107.55373648 106.1658149 111.33047197 107.39648438 115.10742188 C108.18971764 117.53137652 108.98332489 119.95520883 109.77734375 122.37890625 C110.14101547 123.49584366 110.50468719 124.61278107 110.87937927 125.76356506 C113.0233813 132.27950104 115.36161307 138.66759431 118 145 C118.21582733 144.36060486 118.43165466 143.72120972 118.65402222 143.06243896 C121.39064187 134.95703798 124.13144362 126.85305527 126.875 118.75 C127.09254944 118.10736961 127.31009888 117.46473923 127.53424072 116.80263519 C138.40510806 84.69574577 138.40510806 84.69574577 144.14404297 68.99511719 C146.58651899 62.29516659 148.83152802 55.57052124 150.59887695 48.6574707 C153.16347551 38.67228112 156.75048656 29.0222985 160.1875 19.3125 C160.84866104 17.43567145 161.50947129 15.5587193 162.16992188 13.68164062 C163.77590539 9.11965792 165.38663319 4.55937653 167 0 C171.29 0 175.58 0 180 0 C186.5641095 19.58044028 193.06997872 39.17965658 199.49584961 58.80593872 C200.20259865 60.96369498 200.91026951 63.12114954 201.61889648 65.27828979 C202.62500058 68.34218041 203.62743019 71.40725022 204.62890625 74.47265625 C205.07357994 75.82401169 205.07357994 75.82401169 205.52723694 77.20266724 C206.95758202 81.594539 208.28745967 85.98881604 209.47583008 90.45263672 C211.00274889 96.14850251 212.84324649 101.70936024 214.7578125 107.28515625 C215.1063327 108.30806259 215.45485291 109.33096893 215.81393433 110.38487244 C216.54348376 112.52396703 217.27463111 114.66251726 218.00732422 116.80053711 C219.13231856 120.0838594 220.25209757 123.36892606 221.37109375 126.65429688 C222.0830325 128.73968606 222.7952615 130.82497618 223.5078125 132.91015625 C223.84322052 133.89339371 224.17862854 134.87663116 224.52420044 135.8896637 C224.83477386 136.79498337 225.14534729 137.70030304 225.46533203 138.63305664 C225.73830109 139.43038712 226.01127014 140.22771759 226.29251099 141.04920959 C226.97239006 143.04100852 226.97239006 143.04100852 228 145 C228.21582733 144.36060486 228.43165466 143.72120972 228.65402222 143.06243896 C231.39064188 134.95703796 234.13149083 126.85307126 236.875 118.75 C237.09313858 118.10560219 237.31127716 117.46120438 237.536026 116.79727936 C247.53136507 87.27466583 247.53136507 87.27466583 252.75 72.875 C255.63588262 64.89008933 258.43884336 56.88789311 261.0625 48.8125 C261.3502832 47.94415527 261.63806641 47.07581055 261.93457031 46.18115234 C264.48622018 38.17048947 266.34999807 29.28937677 264 21 C260.64998784 16.62637302 257.25926063 14.51429398 251.81689453 13.65551758 C249.27604805 13.3578842 246.73517875 13.10677987 244.1875 12.875 C243.30384766 12.78863281 242.42019531 12.70226562 241.50976562 12.61328125 C239.34047942 12.40221556 237.17031542 12.20020574 235 12 C235 8.04 235 4.08 235 0 C266.68 0 298.36 0 331 0 C331 3.96 331 7.92 331 12 C329.71029297 12.03867188 329.71029297 12.03867188 328.39453125 12.078125 C315.94485315 12.67549232 303.07960834 14.71688319 294 24 C285.60066623 35.76222492 281.58264887 50.46050631 277 64 C276.49320449 65.49138744 275.9863666 66.98276047 275.47949219 68.47412109 C273.85157502 73.27115102 272.23561337 78.07213524 270.625 82.875 C270.36601929 83.64613129 270.10703857 84.41726257 269.84020996 85.21176147 C267.27638195 92.86335785 264.73287482 100.48891811 262.75146484 108.31689453 C261.64684779 112.26093006 260.31493708 116.12173811 259 120 C258.66313171 120.99879181 258.32626343 121.99758362 257.97918701 123.02664185 C256.783589 126.57048633 255.58538782 130.11344312 254.38671875 133.65625 C253.93541572 134.99044156 253.48411678 136.3246345 253.03282166 137.65882874 C251.83213569 141.20815478 250.63108193 144.75735625 249.42987823 148.30650711 C248.68657581 150.5027307 247.94335438 152.6989817 247.20013428 154.89523315 C239.17415574 178.61076709 231.11453994 202.31460185 223 226 C219.7 226 216.4 226 213 226 C211.33178855 221.78975206 209.86509235 217.65127984 208.734375 213.265625 C206.62755975 205.4417059 204.07800999 197.76188319 201.5625 190.0625 C201.02483268 188.4106672 200.48723651 186.75881125 199.94970703 185.10693359 C196.24057737 173.72502074 192.47291501 162.36307468 188.6668396 151.01324463 C185.16268219 140.56352943 181.72036189 130.09481709 178.3125 119.61328125 C177.7020433 117.73802765 177.7020433 117.73802765 177.07925415 115.82489014 C173.77586918 105.67684066 173.77586918 105.67684066 172.15740967 100.67315674 C171.01254543 97.13366948 169.86220946 93.59600103 168.7109375 90.05859375 C168.36562988 88.98531326 168.02032227 87.91203278 167.66455078 86.80622864 C167.34260742 85.82015121 167.02066406 84.83407379 166.68896484 83.81811523 C166.40983246 82.95629135 166.13070007 82.09446747 165.84310913 81.20652771 C165.00388992 78.76622363 165.00388992 78.76622363 163 76 C161.48435062 80.49695209 159.97290451 84.99528858 158.46508789 89.49487305 C157.95317827 91.02063695 157.44018566 92.54603799 156.92602539 94.07104492 C156.18079697 96.28205857 155.43966932 98.49441359 154.69921875 100.70703125 C154.47409103 101.37209183 154.24896332 102.0371524 154.01701355 102.72236633 C152.75585406 106.50497885 151.6388143 110.2973902 150.61962891 114.15258789 C148.82753774 120.81695494 146.61432964 127.32216907 144.38671875 133.8515625 C143.93514392 135.18280341 143.48385195 136.5141403 143.03282166 137.8455658 C141.83481439 141.37933805 140.63278656 144.91172979 139.42987823 148.44383621 C138.18645511 152.09710804 136.9467535 155.75164248 135.70654297 159.40600586 C132.80961551 167.93912742 129.90581194 176.46990044 127 185 C126.59094421 186.20098328 126.18188843 187.40196655 125.76043701 188.63934326 C121.51697244 201.09632417 117.26517954 213.55043708 113 226 C109.7 226 106.4 226 103 226 C102.5875 224.55625 102.175 223.1125 101.75 221.625 C100.68432037 218.04089823 99.46760364 214.6250793 98 211.1875 C96.49961603 207.55446198 95.51031447 204.05742232 94.71484375 200.2109375 C92.88704795 192.08632237 90.24621627 184.30922388 87.5625 176.4375 C87.0278934 174.85341642 86.49397291 173.26910114 85.96069336 171.68457031 C84.85674761 168.40645497 83.74991564 165.1293378 82.640625 161.85302734 C80.34204603 155.0599418 78.0675898 148.25883302 75.79833984 141.4559021 C75.30549162 139.97844075 74.81232462 138.5010857 74.31884766 137.02383423 C70.60937302 125.9164319 66.97701279 114.78548499 63.37612915 103.64245605 C58.66105154 89.05349907 53.84316348 74.50488305 48.875 60 C48.59882843 59.19290588 48.32265686 58.38581177 48.03811646 57.55426025 C47.25380947 55.26470426 46.46735128 52.97590312 45.6796875 50.6875 C45.33832512 49.69325516 45.33832512 49.69325516 44.99006653 48.67892456 C38.79990717 30.130463 38.79990717 30.130463 25 17 C19.43524615 14.42857555 14.07048105 13.38588166 8 12.8125 C7.22527344 12.73064453 6.45054688 12.64878906 5.65234375 12.56445312 C3.76919817 12.36683908 1.88471423 12.18204626 0 12 C0 8.04 0 4.08 0 0 Z " fill="#CDCDCD" transform="translate(11,61)"/>
<path d="M0 0 C42.24 0 84.48 0 128 0 C128 0.66 128 1.32 128 2 C129.7325 2.061875 129.7325 2.061875 131.5 2.125 C144.6307855 3.6527958 155.77665433 10.01565152 166 18 C166.77085937 18.57621094 167.54171875 19.15242188 168.3359375 19.74609375 C178.86143417 28.15439281 184.27124658 40.86470532 186 54 C187.27992674 71.61010314 184.04520465 86.83554537 172.69921875 100.83984375 C162.35198796 112.03495081 148.83024774 119.60057324 134 123 C133.14148437 123.21011719 132.28296875 123.42023438 131.3984375 123.63671875 C119.02057275 126.40700276 106.3553505 126.13071356 93.75 126.0625 C92.11849097 126.05747149 90.48698042 126.05291099 88.85546875 126.04882812 C84.9036077 126.03793757 80.95182108 126.02074866 77 126 C77.31248988 150.40635225 77.31248988 150.40635225 78.875 174.75 C78.94122559 175.48379883 79.00745117 176.21759766 79.07568359 176.97363281 C80.05198293 185.81236837 82.80201434 193.80201434 89.1875 200.1875 C96.09146708 204.63672323 103.08663792 205.3872799 111.1796875 205.7890625 C114 206 114 206 117 207 C117 210.96 117 214.92 117 219 C78.39 219 39.78 219 0 219 C0 215.04 0 211.08 0 207 C3.17122904 205.94292365 5.66877486 205.82763567 9 205.6875 C16.86465126 205.14268617 24.13291567 202.91530866 31 199 C32.1025173 196.83378132 32.1025173 196.83378132 33 194 C33.309375 193.42894531 33.61875 192.85789063 33.9375 192.26953125 C41.69518071 177.52423372 39.29560443 157.23915958 39.265625 141.125 C39.26697574 138.54443322 39.26891967 135.9638667 39.27142334 133.38330078 C39.27435534 128.00094922 39.27033565 122.61867021 39.26074219 117.23632812 C39.24986288 111.06226985 39.25339039 104.88834379 39.264395 98.71428871 C39.27465425 92.71231937 39.27345467 86.71041335 39.26763153 80.70843506 C39.26630943 78.18259665 39.26789147 75.6567548 39.27259064 73.13092041 C40.62373497 45.72002694 40.62373497 45.72002694 31.3828125 20.94921875 C23.0514074 12.60052858 11.12469859 12.60460318 0 12 C0 8.04 0 4.08 0 0 Z M77 20 C77 48.05 77 76.1 77 105 C108.90984061 106.66007688 108.90984061 106.66007688 135 93 C143.75044866 83.21043556 145.87180979 71.12842895 145.38671875 58.41796875 C144.57604456 46.55962107 139.9497344 35.88428983 131 28 C130.52175781 27.56816406 130.04351563 27.13632813 129.55078125 26.69140625 C115.84579076 15.50839948 91.52269942 20 77 20 Z " fill="#CDCDCD" transform="translate(907,61)"/>
<path d="M0 0 C3.87234758 3.34678466 7.52488683 6.88931799 11.15820312 10.4921875 C11.93679688 11.22179687 12.71539062 11.95140625 13.51757812 12.703125 C15.13077071 14.23243157 16.65773324 15.85213902 18.15820312 17.4921875 C18.15820312 18.4821875 18.15820312 19.4721875 18.15820312 20.4921875 C18.81820312 20.4921875 19.47820312 20.4921875 20.15820312 20.4921875 C20.15820312 21.4821875 20.15820312 22.4721875 20.15820312 23.4921875 C20.81820312 23.4921875 21.47820312 23.4921875 22.15820312 23.4921875 C33.23820684 49.51203228 37.84422985 72.17619846 28.15820312 99.4921875 C27.77921875 100.5646875 27.40023437 101.6371875 27.00976562 102.7421875 C26.07786338 105.33300792 25.12890305 107.91570206 24.15820312 110.4921875 C23.49820313 110.4921875 22.83820313 110.4921875 22.15820312 110.4921875 C21.97257812 111.69875 21.97257812 111.69875 21.78320312 112.9296875 C21.57695312 113.7753125 21.37070312 114.6209375 21.15820312 115.4921875 C20.49820313 115.8221875 19.83820313 116.1521875 19.15820312 116.4921875 C18.578125 117.54792969 17.99804688 118.60367188 17.40039062 119.69140625 C15.23799913 123.60065134 12.59970114 126.34933264 9.28320312 129.3046875 C8.7144043 129.81676758 8.14560547 130.32884766 7.55957031 130.85644531 C-18.37436839 153.78108188 -46.6100491 160.81034716 -80.84179688 159.4921875 C-105.67079341 157.68756185 -129.40301227 144.64510055 -146.36914062 126.83984375 C-161.12167457 109.66638116 -169.72157118 87.78334469 -169.12695312 65.05859375 C-167.58852832 45.81774647 -160.91320151 24.38397757 -146.24023438 11.03515625 C-144.77565395 9.85222591 -143.30877252 8.67214617 -141.84179688 7.4921875 C-141.07738281 6.54472656 -140.31296875 5.59726563 -139.52539062 4.62109375 C-126.5732059 -11.17431219 -101.11171431 -19.70670403 -81.52148438 -22.22265625 C-52.37204402 -24.48158316 -23.12273262 -18.92974505 0 0 Z M-110.52929688 13.8046875 C-125.3179847 30.99154092 -130.22403218 54.32192582 -128.84179688 76.4921875 C-127.0687405 94.08392136 -121.41290926 114.3058825 -107.84179688 126.4921875 C-100.73283252 132.05738211 -93.54844027 136.81663155 -84.84179688 139.4921875 C-84.17535156 139.71519531 -83.50890625 139.93820312 -82.82226562 140.16796875 C-68.0877294 144.30941583 -51.47178591 141.57306557 -38.02929688 134.8046875 C-20.90337284 124.62583221 -12.86986728 108.46089697 -7.63867188 89.8515625 C-2.20708998 66.95371727 -6.16888474 42.75172132 -17.59179688 22.3671875 C-25.86065989 9.33746396 -37.57449818 -0.00905655 -52.84179688 -3.5078125 C-75.92922227 -8.13843409 -93.21886753 -1.0903331 -110.52929688 13.8046875 Z " fill="#CDCDCD" transform="translate(476.841796875,126.5078125)"/>
<path d="M0 0 C3.63 0 7.26 0 11 0 C11 20.13 11 40.26 11 61 C7.04 61 3.08 61 -1 61 C-1.32613281 59.84242188 -1.65226562 58.68484375 -1.98828125 57.4921875 C-2.42937936 55.95303666 -2.87080289 54.41397905 -3.3125 52.875 C-3.52583984 52.11445313 -3.73917969 51.35390625 -3.95898438 50.5703125 C-5.25040641 46.09852278 -6.84988393 42.14890433 -9 38 C-9 37.34 -9 36.68 -9 36 C-9.66 36 -10.32 36 -11 36 C-12.04497358 34.83034207 -13.036096 33.61231908 -14 32.375 C-20.59160775 24.6136915 -29.25107826 20.49462103 -39.25 19.25 C-47.27717383 18.6384058 -53.94483194 20.11965757 -61 24 C-61.66 24 -62.32 24 -63 24 C-63.268125 24.556875 -63.53625 25.11375 -63.8125 25.6875 C-65 28 -65 28 -66.625 30.125 C-69.02443869 35.14200818 -68.81063233 40.01266975 -67.3671875 45.33203125 C-61.5286177 58.45732004 -41.37334153 64.96801878 -29.1875 70.75 C-26.59101501 71.99066942 -23.99584975 73.23401419 -21.40193176 74.4800415 C-19.80525974 75.24614277 -18.20698498 76.00891742 -16.60673523 76.76751709 C0.58789993 84.97871965 17.26124765 94.98210245 24.2734375 113.640625 C28.14352158 126.2079948 26.80303472 140.10743909 20.6875 151.6875 C19.8145336 153.13900035 18.91884681 154.57710009 18 156 C17.56945313 156.67804688 17.13890625 157.35609375 16.6953125 158.0546875 C8.3822903 170.12500788 -6.19468648 178.51601384 -20.41796875 181.5625 C-42.50071118 184.25962885 -62.22418417 180.26843988 -80.48828125 167.22265625 C-81.23658203 166.61744141 -81.23658203 166.61744141 -82 166 C-83.45232253 169.57847037 -84.81226545 173.18060107 -86.125 176.8125 C-86.74375 178.524375 -87.3625 180.23625 -88 182 C-91.96 182 -95.92 182 -100 182 C-100 158.57 -100 135.14 -100 111 C-96.04 111 -92.08 111 -88 111 C-87.72027344 112.14855469 -87.44054688 113.29710937 -87.15234375 114.48046875 C-83.20052699 130.03906704 -78.07975622 144.03316588 -63.79296875 152.703125 C-63.20128906 153.13109375 -62.60960937 153.5590625 -62 154 C-62 154.66 -62 155.32 -62 156 C-59.0063092 157.01959035 -56.0042486 158.01199562 -53 159 C-51.7934375 159.41185547 -51.7934375 159.41185547 -50.5625 159.83203125 C-39.2014037 163.52802892 -27.91826892 164.21673508 -16.75 159.375 C-11.76978721 156.66412129 -7.53445749 152.06891499 -5 147 C-4.1249761 138.47927548 -5.30386675 132.72696438 -10.5546875 126.01171875 C-15.78344581 120.23315538 -22.22321049 116.65191916 -29.03320312 113.04296875 C-31.03574386 111.98104546 -33.02601863 110.89843752 -35.015625 109.8125 C-46.64655355 103.51189906 -58.52394436 97.45795994 -70.7734375 92.4453125 C-75.48533962 90.33465416 -79.09259093 87.3303362 -83 84 C-83.62132812 83.47535156 -84.24265625 82.95070313 -84.8828125 82.41015625 C-94.03381157 74.01832078 -99.25935883 62.61921157 -100.3125 50.36328125 C-100.76734863 36.30561579 -96.27873009 25.55868741 -86.75 15.3125 C-73.22627915 2.50055393 -56.80294263 0.50636066 -39.0546875 0.72265625 C-26.17427721 1.12206422 -15.63130544 5.91246304 -5 13 C-3.25150329 8.6960081 -1.6229639 4.35249409 0 0 Z " fill="#CDCDCD" transform="translate(1575,104)"/>
<path d="M0 0 C3.96 0 7.92 0 12 0 C12 20.13 12 40.26 12 61 C7.71 61 3.42 61 -1 61 C-1.34611328 59.54980469 -1.34611328 59.54980469 -1.69921875 58.0703125 C-5.27764834 43.57748608 -10.29478424 32.07396958 -23.09375 23.515625 C-31.24713621 19.26359025 -41.03714466 17.79601918 -50 20 C-53.43055375 21.14351792 -56.72193103 22.47598548 -60 24 C-61.09828125 24.50273437 -61.09828125 24.50273437 -62.21875 25.015625 C-64.57376053 26.31707819 -65.00997735 27.52494337 -66 30 C-66.391875 30.721875 -66.78375 31.44375 -67.1875 32.1875 C-68.72816766 37.52058035 -67.87089299 42.2917099 -65.375 47.1875 C-60.02938286 53.51783609 -53.76056481 57.56658788 -46.5 61.4375 C-45.09983643 62.1963147 -45.09983643 62.1963147 -43.67138672 62.97045898 C-35.94745285 67.09816617 -28.06847956 70.85621128 -20.15542603 74.60095215 C8.17462754 88.01720165 8.17462754 88.01720165 17 98 C17.33 98.99 17.66 99.98 18 101 C18.474375 101.45375 18.94875 101.9075 19.4375 102.375 C23.35835304 106.45268716 23.90290738 112.64292006 25 118 C25.66 118 26.32 118 27 118 C27 124.93 27 131.86 27 139 C26.34 139 25.68 139 25 139 C24.896875 139.99 24.79375 140.98 24.6875 142 C24.09191294 146.28297163 22.61404973 149.99996371 21 154 C20.34 154 19.68 154 19 154 C19 154.99 19 155.98 19 157 C18.34 157 17.68 157 17 157 C16.63261719 158.10408203 16.63261719 158.10408203 16.2578125 159.23046875 C11.59819369 169.49031266 -1.06913955 174.98048549 -11 179 C-26.54270418 184.69008089 -47.1083491 184.07909595 -62.09765625 177.16015625 C-68.55437618 174.04721263 -74.79483269 170.58360438 -81 167 C-81.79423861 168.56119422 -82.58527123 170.12401964 -83.375 171.6875 C-83.81585937 172.55761719 -84.25671875 173.42773438 -84.7109375 174.32421875 C-85.9190543 176.83197636 -86.96619922 179.41549804 -88 182 C-91.63 182 -95.26 182 -99 182 C-99 158.57 -99 135.14 -99 111 C-95.04 111 -91.08 111 -87 111 C-86.8040625 112.05316406 -86.608125 113.10632813 -86.40625 114.19140625 C-83.38771064 129.21048016 -78.26797927 143.0967164 -65 152 C-51.81235349 159.74345456 -38.11114411 165.13661755 -22.63671875 161.78125 C-14.5540326 159.38638003 -9.26690174 155.28421083 -5 148 C-3.14047739 142.42143218 -3.67171615 137.38243564 -5.91015625 132.0390625 C-9.8385421 124.68917929 -15.75239409 120.54706668 -22.83984375 116.4453125 C-23.55269531 115.96835938 -24.26554687 115.49140625 -25 115 C-25 114.34 -25 113.68 -25 113 C-25.82129395 112.74782715 -26.64258789 112.4956543 -27.48876953 112.23583984 C-31.52816868 110.81410166 -35.318635 109.0688627 -39.1796875 107.2265625 C-40.33707932 106.67903824 -40.33707932 106.67903824 -41.51785278 106.12045288 C-43.97176102 104.95848971 -46.42334928 103.79171747 -48.875 102.625 C-50.51418355 101.84866401 -52.15350522 101.07261956 -53.79296875 100.296875 C-55.38033442 99.5445368 -56.967578 98.79194095 -58.5546875 98.0390625 C-59.64570267 97.52166 -59.64570267 97.52166 -60.75875854 96.99380493 C-64.29413396 95.31083719 -67.82140288 93.61162359 -71.33520508 91.8840332 C-71.96574295 91.57456253 -72.59628082 91.26509186 -73.2459259 90.94624329 C-76.02175042 89.44881207 -78.38580797 87.56564921 -80.8125 85.5625 C-81.72644531 84.82128906 -82.64039063 84.08007812 -83.58203125 83.31640625 C-85.97972729 81.01942119 -87.39693226 78.88359632 -89 76 C-89.66 75.34 -90.32 74.68 -91 74 C-97.63310258 61.76120475 -100.8546254 49.87169528 -98 36 C-96.17955176 31.07253673 -93.60076756 26.55284483 -91 22 C-90.64808594 21.25492188 -90.29617188 20.50984375 -89.93359375 19.7421875 C-88.51457302 17.09414045 -86.42845993 15.69992195 -84 14 C-83.34 14 -82.68 14 -82 14 C-81.67 13.01 -81.34 12.02 -81 11 C-78.51506425 9.50608029 -76.09798728 8.20132233 -73.5 6.9375 C-72.81679687 6.58623047 -72.13359375 6.23496094 -71.4296875 5.87304688 C-57.61959444 -0.96734566 -38.44472261 -1.57498214 -23.78125 2.8671875 C-19.01100506 4.81012434 -14.46683945 7.1332403 -9.93359375 9.57421875 C-7.09391991 11.21856272 -7.09391991 11.21856272 -4 11 C-2.68 7.37 -1.36 3.74 0 0 Z " fill="#CDCDCD" transform="translate(1726,104)"/>
</svg>
